<svg width="48" height="48" viewBox="0 0 48 48" xmlns="http://www.w3.org/2000/svg"><path d="M46.679 46.679a4.508 4.508 0 0 1-6.376 0l-7.956-7.956c-3.271 2.098-7.137 3.348-11.312 3.348-11.617 0-21.036-9.418-21.036-21.036C-.001 9.417 9.418-.001 21.035-.001c11.619 0 21.036 9.417 21.036 21.036 0 4.173-1.252 8.041-3.349 11.313l7.956 7.956a4.506 4.506 0 0 1 0 6.374l.001.001zM21.036 6.01c-8.298 0-15.026 6.726-15.026 15.026s6.728 15.026 15.026 15.026c8.299 0 15.026-6.726 15.026-15.026S29.336 6.01 21.036 6.01z" fill="#999"/></svg>